<?xml version="1.0" standalone="no"?><!DOCTYPE svg PUBLIC "-//W3C//DTD SVG 1.1//EN" "http://www.w3.org/Graphics/SVG/1.1/DTD/svg11.dtd"><svg t="1510051566874" class="icon" style="" viewBox="0 0 1024 1024" version="1.1" xmlns="http://www.w3.org/2000/svg" p-id="2721" xmlns:xlink="http://www.w3.org/1999/xlink" width="24" height="24"><defs><style type="text/css"></style></defs><path d="M989.344 511.999c0 263.631-213.714 477.344-477.344 477.344s-477.344-213.714-477.344-477.344c0-263.629 213.715-477.342 477.344-477.342 263.631 0 477.344 213.714 477.344 477.342zM513.79 121.277c-215.79 0-390.724 174.93-390.724 390.722 0 215.793 174.932 390.725 390.724 390.725 215.793 0 390.723-174.929 390.723-390.725 0-215.791-174.932-390.722-390.723-390.722z" fill="#999999" p-id="2722"></path><path d="M332.206 645.922h-51.118v-192.654c-18.678 17.463-40.692 30.381-66.038 38.749v-46.39c13.34-4.367 27.834-12.644 43.479-24.831s26.379-26.409 32.201-42.661h41.476v267.789zM495.026 378.134c25.834 0 46.027 9.218 60.58 27.652 17.343 21.829 26.014 58.033 26.014 108.607 0 50.455-8.733 86.716-26.197 108.789-14.434 18.191-34.564 27.289-60.398 27.289-25.955 0-46.877-9.974-62.764-29.927-15.89-19.949-23.83-55.514-23.83-106.697 0-50.21 8.733-86.35 26.197-108.425 14.431-18.192 34.564-27.29 60.398-27.29zM495.026 420.522c-6.185 0-11.707 1.973-16.554 5.913-4.853 3.945-8.614 11.007-11.28 21.194-3.519 13.221-5.276 35.475-5.276 66.764s1.573 52.789 4.73 64.493c3.153 11.706 7.123 19.495 11.917 23.375 4.789 3.884 10.278 5.823 16.464 5.823s11.703-1.969 16.554-5.913c4.849-3.939 8.611-11.006 11.28-21.194 3.516-13.097 5.276-35.293 5.276-66.581 0-31.29-1.578-52.785-4.73-64.491-3.155-11.703-7.126-19.526-11.918-23.468-4.793-3.94-10.278-5.915-16.463-5.915zM702.233 378.134c25.834 0 46.027 9.218 60.58 27.652 17.343 21.829 26.015 58.033 26.015 108.607 0 50.455-8.733 86.716-26.197 108.789-14.435 18.191-34.564 27.289-60.399 27.289-25.955 0-46.876-9.974-62.762-29.927-15.891-19.949-23.831-55.514-23.831-106.697 0-50.21 8.733-86.35 26.197-108.425 14.433-18.192 34.566-27.29 60.398-27.29zM702.233 420.522c-6.185 0-11.706 1.973-16.554 5.913-4.852 3.945-8.614 11.007-11.28 21.194-3.519 13.221-5.276 35.475-5.276 66.764s1.575 52.789 4.731 64.493c3.152 11.706 7.122 19.495 11.917 23.375 4.788 3.884 10.277 5.823 16.464 5.823s11.702-1.969 16.554-5.913c4.848-3.939 8.611-11.006 11.28-21.194 3.516-13.097 5.276-35.293 5.276-66.581 0-31.29-1.578-52.785-4.731-64.491-3.155-11.703-7.126-19.526-11.917-23.468-4.791-3.94-10.277-5.915-16.464-5.915z" fill="#999999" p-id="2723"></path></svg>