<?xml version="1.0" standalone="no"?><!DOCTYPE svg PUBLIC "-//W3C//DTD SVG 1.1//EN" "http://www.w3.org/Graphics/SVG/1.1/DTD/svg11.dtd"><svg t="1510053485459" class="icon" style="" viewBox="0 0 1024 1024" version="1.1" xmlns="http://www.w3.org/2000/svg" p-id="4825" xmlns:xlink="http://www.w3.org/1999/xlink" width="24" height="24"><defs><style type="text/css"></style></defs><path d="M510.628258 955.87339c-246.104117 0-446.376397-200.222137-446.376397-446.376397 0-246.105141 200.272279-446.376397 446.376397-446.376397 246.105141 0 446.376397 200.271256 446.376397 446.376397C957.004655 755.651252 756.733399 955.87339 510.628258 955.87339zM510.628258 109.053742c-220.796732 0-400.443251 179.64652-400.443251 400.443251 0 220.845851 179.647543 400.443251 400.443251 400.443251 220.797755 0 400.444275-179.597401 400.444275-400.443251C911.072533 288.699238 731.426013 109.053742 510.628258 109.053742z" p-id="4826" fill="#ef5b51"></path><path d="M465.343889 648.292106 465.343889 618.898659c0-12.354376 0.896416-23.464411 2.739391-33.278941 1.792832-9.764388 4.583388-19.031449 8.468882-27.799136 3.886517-8.767688 9.017374-17.287735 15.493879-25.507954 6.426363-8.270361 14.548344-17.038048 24.311709-26.304086l34.824133-33.228799c9.763364-8.767688 18.132986-18.582217 25.107841-29.393447 6.973832-10.81123 10.462283-23.962761 10.462283-39.406498 0-20.126386-6.376221-36.966936-18.930141-50.615794-12.654204-13.649881-30.589692-20.525476-53.804417-20.525476-11.806907 0-22.517853 2.191922-32.083719 6.575766-9.465582 4.383844-17.736966 10.31288-24.710798 17.785062-6.974855 7.473205-12.256138 16.09149-15.842827 25.90602-3.586688 9.813506-5.678326 19.827581-6.176676 30.140461l-95.054913-8.468882c3.039219-24.810059 9.665127-46.829562 19.678178-66.159816 10.063193-19.329231 23.066345-35.669384 39.008432-49.070602 15.991206-13.401218 34.32476-23.563672 54.900378-30.53955 20.624736-6.973832 42.794665-10.412141 66.50774-10.412141 22.168905 0 43.193755 3.238764 63.020312 9.66615 19.828604 6.42534 37.365003 15.991206 52.559053 28.595268s27.151383 28.198226 35.920094 46.780443c8.767688 18.532075 13.151531 39.954991 13.151531 64.166415 0 16.490579-1.792832 30.888498-5.379521 43.243897-3.587712 12.404518-8.768711 23.713075-15.493879 34.076096-6.67605 10.262738-14.797008 20.22667-24.362874 29.741371-9.514701 9.514701-20.225647 19.478633-32.083719 29.741371-10.261715 8.767688-18.681478 16.538675-25.107841 23.215748-6.476505 6.67605-11.607362 13.401218-15.443737 20.126386-3.886517 6.67605-6.576789 13.849426-8.120958 21.621437-1.545192 7.721869-2.342348 17.237593-2.342348 28.596292l0 20.126386L465.343889 648.292106zM449.899128 755.700371c0-16.439414 6.02932-30.637788 18.184151-42.494837 12.05557-11.856026 26.653033-17.785062 43.640939-17.785062 16.489556 0 30.937616 5.680373 43.293015 17.037025 12.355399 11.30958 18.582217 25.209148 18.582217 41.698704 0 16.490579-6.077416 30.68793-18.184151 42.544979-12.106736 11.857049-26.653033 17.785062-43.691081 17.785062-8.270361 0-16.09149-1.594311-23.613814-4.682649-7.423063-3.088338-13.998829-7.1744-19.629059-12.354376-5.679349-5.131881-10.212596-11.308557-13.550621-18.533099C451.544605 771.6926 449.899128 763.971755 449.899128 755.700371z" p-id="4827" fill="#ef5b51"></path></svg>