<?xml version="1.0" standalone="no"?><!DOCTYPE svg PUBLIC "-//W3C//DTD SVG 1.1//EN" "http://www.w3.org/Graphics/SVG/1.1/DTD/svg11.dtd"><svg t="1510043676461" class="icon" style="" viewBox="0 0 1024 1024" version="1.1" xmlns="http://www.w3.org/2000/svg" p-id="16058" xmlns:xlink="http://www.w3.org/1999/xlink" width="24" height="24"><defs><style type="text/css"></style></defs><path d="M512.361327 1021.83204c-93.222301 0-184.999294-25.292872-264.491179-72.988003-16.62103-10.117149-22.402258-31.796754-12.285109-48.417784 10.117149-16.62103 31.796754-22.402258 49.140437-12.28511 68.652082 41.191249 147.421313 62.870854 227.635851 62.870854 242.811574 0 440.095977-197.284404 440.095977-439.373324S755.1729 72.265349 512.361327 72.265349c-242.811574 0-440.818631 196.56175-440.818631 439.373324 0 85.273112 24.570219 168.378264 71.542696 239.198307 10.839802 16.62103 5.781228 38.300635-10.117149 49.140437-16.62103 10.839802-38.300635 5.781228-49.140438-10.117149C28.90614 707.47777 0.722653 611.364855 0.722653 511.638673c0-136.58151 53.476359-264.491179 149.589274-360.604093C247.147495 54.921665 375.779817 1.445307 512.361327 1.445307s265.213832 52.753705 362.0494 149.589273 149.589273 224.745236 149.589273 360.604093-53.476359 264.491179-149.589273 360.604093c-96.835568 96.835568-225.46789 149.589273-362.0494 149.589274z" p-id="16059" fill="#ef5b51"></path><path d="M363.494707 801.422724c-10.117149 0-19.511644-2.16796-27.460833-5.781228-13.007763-5.058574-23.847565-13.730416-31.796753-26.015526-8.671842-11.562456-12.285109-25.292872-12.28511-39.745942V528.982357c0-10.839802 2.16796-20.956951 7.226535-30.351447 5.058574-9.394495 10.839802-17.343684 18.788991-24.570218-23.847565 4.335921-48.417784 7.226535-74.43331 10.117149-6.503881 0.722653-11.562456-0.722653-15.898377-4.335921-4.335921-3.613267-7.226535-8.671842-7.949188-15.175724l-0.722654-1.445307c-0.722653-6.503881 0.722653-11.562456 5.058575-15.898377 4.335921-4.335921 8.671842-7.226535 15.175723-7.949188 45.52717-5.058574 89.609033-11.562456 132.968243-20.234298 42.636556-8.671842 85.273112-20.234298 126.464361-34.687368-2.16796-4.335921-3.613267-8.671842-3.613267-13.007762V210.292167c0-6.503881 2.16796-11.562456 6.503881-15.898377 4.335921-4.335921 9.394495-6.503881 15.898377-6.503882h1.445307c6.503881 0 11.562456 2.16796 15.898377 6.503882 4.335921 4.335921 6.503881 9.394495 6.503881 15.898377v157.538461c18.066337-7.226535 36.132675-15.175723 54.921666-24.570219 13.007763-6.503881 26.015526-13.007763 39.745942-20.234297 13.007763-7.226535 26.738179-14.45307 40.468596-22.402259L612.810162 252.928723c-5.058574-3.613267-7.949188-8.671842-8.671842-15.175724-0.722653-6.503881 0.722653-12.285109 4.335921-16.62103l0.722654-0.722654c3.613267-5.058574 8.671842-7.949188 14.45307-7.949188 5.781228-0.722653 11.562456 1.445307 16.62103 5.058574l144.530699 112.733945c5.058574 3.613267 7.949188 8.671842 8.671842 15.175724 0.722653 6.503881-0.722653 12.285109-5.058575 16.62103l-0.722653 0.722654c-3.613267 5.058574-8.671842 7.949188-14.45307 7.949188-5.781228 0.722653-11.562456-1.445307-16.621031-5.058574l-44.804516-34.687368-5.058575 4.335921c-15.898377 9.394495-32.519407 18.066337-48.417784 26.738179-15.898377 8.671842-31.0741 16.62103-46.249823 23.847565-33.964714 16.62103-67.929428 31.0741-101.894143 42.636557-33.964714 11.562456-69.374735 21.679605-105.50741 29.628793h274.608328c9.394495 0 18.788991 2.16796 27.460832 5.058574 8.671842 3.613267 16.62103 8.671842 23.847566 15.898377 5.058574 5.058574 10.117149 13.007763 15.175723 23.124912 1.445307 4.335921 3.613267 9.394495 4.335921 13.730416 1.445307 4.335921 1.445307 9.394495 1.445307 14.45307V729.880028c0 5.058574-0.722653 10.117149-1.445307 14.45307-1.445307 5.058574-2.890614 9.394495-4.335921 13.007763-7.949188 17.343684-20.234298 30.351447-37.577982 37.577982-8.671842 4.335921-18.788991 5.781228-28.183486 5.781228H363.494707z m61.425547-551.384615c-13.007763 13.007763-25.292872 23.847565-37.577982 34.687367-13.007763 10.117149-26.015526 20.234298-39.023288 28.90614-13.007763 9.394495-26.738179 17.343684-39.745942 25.292872-13.730416 7.949188-27.460833 14.45307-41.913903 20.956952-6.503881 2.890614-12.285109 2.890614-18.066337 0.722653-5.781228-2.16796-9.394495-5.781228-11.562456-11.562456l-0.722654-0.722653c-2.890614-5.781228-2.890614-11.562456-0.722653-17.343684 2.16796-5.781228 5.781228-9.394495 11.562456-11.562456 13.730416-6.503881 26.738179-13.007763 39.023288-20.234298 12.285109-7.226535 25.292872-14.45307 37.577982-22.402258 23.847565-15.898377 46.972477-35.410021 70.097389-59.257587 4.335921-3.613267 9.394495-5.781228 15.898377-5.781227 5.781228 0 10.839802 1.445307 15.898377 5.781227h0.722653c4.335921 4.335921 6.503881 9.394495 7.226535 15.898377-1.445307 7.226535-3.613267 12.285109-8.671842 16.621031z m281.112209 278.944248c0-7.949188-2.16796-13.730416-7.226535-18.788991-4.335921-4.335921-10.839802-6.503881-18.066337-6.503881H364.217361c-7.949188 0-14.45307 2.16796-18.788991 6.503881-5.058574 5.058574-7.949188 11.562456-7.949189 18.788991V556.44319h369.275935v-27.460833zM336.756528 655.446718h369.275935v-53.476358H336.756528v53.476358z m343.983063 100.448836c7.226535 0 13.007763-2.16796 18.066337-7.226535 5.058574-5.781228 7.226535-12.285109 7.226535-18.788991v-28.183486H336.756528v28.183486c0 7.226535 2.890614 13.730416 7.949188 18.788991 5.058574 5.058574 11.562456 7.226535 18.788991 7.226535h317.244884z" p-id="16060" fill="#ef5b51"></path></svg>