<?xml version="1.0" standalone="no"?><!DOCTYPE svg PUBLIC "-//W3C//DTD SVG 1.1//EN" "http://www.w3.org/Graphics/SVG/1.1/DTD/svg11.dtd"><svg t="1510053282109" class="icon" style="" viewBox="0 0 1024 1024" version="1.1" xmlns="http://www.w3.org/2000/svg" p-id="3506" xmlns:xlink="http://www.w3.org/1999/xlink" width="24" height="24"><defs><style type="text/css"></style></defs><path d="M510.009158 957.904653c-60.406788 0-119.017674-11.834536-174.202531-35.177174-53.293787-22.540366-101.151771-54.807257-142.245701-95.900164-41.09393-41.09393-73.359798-88.952938-95.901187-142.245701-23.341614-55.18588-35.176151-113.796766-35.176151-174.203554 0-60.407812 11.835559-119.018697 35.176151-174.203554 22.541389-53.293787 54.807257-101.151771 95.901187-142.245701 41.09393-41.09393 88.951915-73.358775 142.245701-95.900164 55.18588-23.341614 113.795742-35.176151 174.202531-35.176151 60.407812 0 119.018697 11.835559 174.203554 35.176151 53.293787 22.541389 101.152794 54.807257 142.246725 95.900164 41.092907 41.09393 73.358775 88.952938 95.900164 142.245701 23.342638 55.18588 35.177174 113.796766 35.177174 174.203554 0 60.406788-11.834536 119.018697-35.177174 174.203554-22.540366 53.292764-54.807257 101.151771-95.900164 142.245701-41.09393 41.092907-88.952938 73.358775-142.246725 95.900164C629.026832 946.070116 570.416969 957.904653 510.009158 957.904653zM510.009158 101.737102c-225.324862 0-408.639934 183.316096-408.639934 408.640957 0 225.324862 183.315072 408.640957 408.639934 408.640957 225.325885 0 408.641981-183.316096 408.641981-408.640957C918.651139 285.052175 735.335043 101.737102 510.009158 101.737102z" p-id="3507" fill="#ef5a50"></path><path d="M385.577171 290.579051l-11.955286 45.824675 71.726601 0c14.601556 1.338485 22.571065 7.969509 23.908526 19.923772-1.338485 11.954263-9.307993 17.931395-23.908526 17.931395l-81.687464 0-27.894304 109.581768c-2.676969 6.661723 0 9.307993 7.969509 7.969509l33.871435 0 0-63.757093c0-11.954263 5.977132-18.585287 17.931395-19.923772 11.954263 1.338485 18.584264 7.969509 19.923772 19.923772l0 63.757093 35.862789 0c11.955286 1.338485 19.240203 7.315616 21.917172 17.931395 0 13.292748-5.978155 19.923772-17.931395 19.923772l-39.847543 0 0 61.762669c9.276271-1.306762 19.923772-4.637624 31.878035-9.960863 7.969509-2.64627 13.94664-4.638647 17.931395-5.978155 10.615779-2.645247 18.585287 1.339508 23.908526 11.955286 2.64627 10.646478-1.339508 17.931395-11.955286 21.916149-18.615986 9.309016-39.194674 16.623609-61.763692 21.916149l0 105.597013c-1.339508 11.954263-7.969509 17.931395-19.923772 17.931395-11.955286 0-17.931395-5.978155-17.931395-17.931395l0-93.64275c-3.985778 1.338485-10.646478 3.330862-19.924795 5.977132-30.570249 6.662747-51.147914 10.646478-61.763692 11.955286-14.631232 1.338485-23.255657-3.301186-25.901926-13.947663-1.338485-13.262048 4.638647-21.916149 17.931395-25.900903 2.64627 0 7.969509-0.654916 15.939017-1.992377 37.170574-6.631024 61.763692-12.608156 73.718979-17.931395L377.606639 529.666358l-59.772338 0c-25.247011 2.676969-33.216519-10.615779-23.908526-39.847543l31.878035-115.558899-33.870412 0c-11.955286 0-17.931395-5.977132-17.931395-17.931395 1.306762-11.954263 7.969509-18.585287 19.923772-19.923772l41.840944 0 13.94664-55.787584c2.64627-11.954263 9.961886-16.59291 21.917172-13.94664C382.245286 270.654256 386.883933 278.624788 385.577171 290.579051zM624.663454 292.570405l-11.954263 49.810453 95.635127 0c10.615779 1.338485 15.939017 7.969509 15.939017 19.923772-1.339508 11.954263-7.315616 17.931395-17.931395 17.931395l-101.612259 0-11.955286 55.787584 139.468448 0c11.954263 1.338485 17.930371 7.969509 17.930371 19.923772s-5.977132 17.931395-17.930371 17.931395l-147.437957 0-9.960863 45.825698c-3.985778 13.292748 0 18.615986 11.954263 15.939017l99.620905 0c33.18582 2.676969 42.49279 19.269879 27.89328 49.809429-14.632255 31.878035-38.540781 63.1032-71.726601 93.64275 5.29254 3.985778 15.254425 8.655124 29.885658 13.94664 7.969509 3.985778 17.931395 9.277294 29.886681 15.939017 13.261025 9.277294 17.246803 19.924795 11.954263 31.878035-7.969509 10.615779-18.615986 11.955286-31.878035 3.985778-47.818075-27.894304-106.935498-55.102992-177.322591-81.688487-14.632255-5.29254-19.924795-14.600533-15.939017-27.89328 5.291516-10.615779 15.939017-13.94664 31.878035-9.961886 21.230534 9.309016 48.470945 20.609387 81.687464 33.871435 29.201066-23.908526 51.80283-48.470945 67.741847-73.718979 1.306762-2.64627 1.306762-4.638647 0-5.977132-1.339508-2.64627-3.331885-3.985778-5.978155-3.985778L558.916031 575.491033c-18.615986 1.339508-29.231765-0.653893-31.878035-5.977132-3.985778-3.984754-3.331885-15.253402 1.992377-33.870412l13.94664-61.763692-73.718979 0c-10.646478 0-16.623609-5.977132-17.931395-17.931395 0-11.954263 5.29254-18.585287 15.939017-19.923772l83.680864 0 11.954263-55.787584-61.763692 0c-13.292748 0-19.923772-5.977132-19.923772-17.931395s6.630001-18.585287 19.923772-19.923772l69.734224 0 13.94664-57.779961c2.64627-13.261025 10.615779-19.23918 23.908526-17.931395C620.679723 270.654256 625.972263 279.30938 624.663454 292.570405z" p-id="3508" fill="#ef5a50"></path></svg>